<?xml version="1.0" encoding="UTF-8"?>
<!DOCTYPE svg PUBLIC "-//W3C//DTD SVG 1.1//EN" "http://www.w3.org/Graphics/SVG/1.1/DTD/svg11.dtd">
<svg xmlns="http://www.w3.org/2000/svg" version="1.1" width="48px" height="48px" style="shape-rendering:geometricPrecision; text-rendering:geometricPrecision; image-rendering:optimizeQuality; fill-rule:evenodd; clip-rule:evenodd" xmlns:xlink="http://www.w3.org/1999/xlink">
<g><path style="opacity:0.779" fill="#000000" d="M 21.5,1.5 C 33.1597,0.661032 38.6597,5.99437 38,17.5C 34.4893,23.6896 31.656,30.1896 29.5,37C 30.6868,41.7552 33.1868,42.5886 37,39.5C 37.49,38.2068 37.6567,36.8734 37.5,35.5C 39.1667,35.5 40.8333,35.5 42.5,35.5C 42.3636,43.472 38.3636,46.972 30.5,46C 24.9752,43.0812 23.1419,38.5812 25,32.5C 27.5792,26.3432 30.4126,20.3432 33.5,14.5C 30.9801,6.56715 26.3135,4.90048 19.5,9.5C 18.4079,11.1831 17.7413,13.0164 17.5,15C 19.1314,19.1008 20.6314,23.2674 22,27.5C 22.9501,37.8891 18.4501,41.7224 8.5,39C 1.9354,30.4455 3.9354,24.7788 14.5,22C 10.4638,12.9198 12.7971,6.08645 21.5,1.5 Z M 11.5,27.5 C 17.4877,27.664 18.821,30.164 15.5,35C 9.40339,35.1475 8.07006,32.6475 11.5,27.5 Z"/></g>
</svg>
